<svg fill="none" xmlns="http://www.w3.org/2000/svg">
<!-- Skills start -->
  <g id="html">
    <path fill-rule="evenodd" clip-rule="evenodd"
    d="M18.3125 42.0645L27.2623 6.6875L31.4375 7.87241L22.4878 43.3125L18.3125 42.0645Z" fill="#7572D5" />
  <path fill-rule="evenodd" clip-rule="evenodd"
    d="M13.5025 12.6875L16.5625 15.9278L7.99501 25.0001L16.5625 34.0721L13.5025 37.3125L1.875 25.0001L13.5025 12.6875Z"
    fill="#7572D5" />
  <path fill-rule="evenodd" clip-rule="evenodd"
    d="M36.4976 12.6875L33.4375 15.9278L42.0051 25.0001L33.4375 34.0721L36.4976 37.3125L48.125 25.0001L36.4976 12.6875Z"
    fill="#7572D5" />
  </g>
  <g id="css">
    <path
    d="M38.0508 10.8437L12.946 10.8377L13.3515 15.7547L32.6381 15.7577L32.1519 20.8502H19.5034L19.9607 25.6742H31.7357L31.0391 32.2806L25.4969 33.7886L19.8662 32.2701L19.508 28.3134H14.5358L15.0876 35.5411L25.4969 38.7341L35.7309 35.8652L38.0493 10.8452L38.0508 10.8437ZM5.49841 2.56873H45.4984L41.86 42.9999L25.4542 47.5687L9.1399 42.9968L5.49841 2.56873Z"
    fill="#7572D5" />
  </g>
  <g id="react">
    <path
    d="M45.8125 21C45.8125 18.0833 42.6875 15.375 37.4792 13.5L36.5417 13.1875V12.7708C37.6875 7.04164 36.8542 2.7708 34.25 1.2083C31.6458 -0.354197 27.7917 1.10414 23.625 4.74997L23 5.37497L22.7917 5.16664H22.5833C18.3125 1.2083 14.1458 -0.145864 11.5417 1.31247C8.9375 2.7708 8.20833 6.8333 9.25 12.1458C9.35958 12.4838 9.4295 12.8333 9.45833 13.1875L8.3125 13.6041C3.20833 15.375 0.1875 18.0833 0.1875 21C0.1875 23.9166 3.52083 26.8333 8.72917 28.7083L9.45833 28.9166C9.32964 29.2854 9.25935 29.672 9.25 30.0625C8.20833 35.2708 9.14583 39.2291 11.5417 40.6875C13.9375 42.1458 18.3125 40.7916 22.4792 37.1458L23.1042 36.625L23.9375 37.4583C26.8542 39.9583 29.7708 41.3125 32.0625 41.3125C32.8708 41.3309 33.6671 41.1137 34.3542 40.6875C36.9583 39.2291 37.8958 34.9583 36.75 29.5416V29.3333C36.705 29.1619 36.6702 28.988 36.6458 28.8125H36.9583C42.4792 26.8333 45.8125 24.0208 45.8125 21ZM42.7917 21C42.7917 22.25 40.5 24.4375 36.0208 25.8958H35.8125C35.2664 24.2202 34.6051 22.5843 33.8333 21C34.5625 19.3333 35.1875 17.6666 35.7083 16.1041L36.5417 16.3125C40.7083 17.7708 42.7917 19.75 42.7917 21ZM25.9167 35.1666L25.0833 34.5416C26.2761 33.2201 27.3891 31.8287 28.4167 30.375L33.7292 29.5416C33.8333 29.75 33.8333 29.9583 33.9375 30.0625C34.3087 31.9492 34.379 33.8829 34.1458 35.7916C33.9995 36.7045 33.5608 37.5452 32.8958 38.1875C31.8542 38.8125 29.0417 37.9791 25.9167 35.1666ZM24.5625 30.5833L23.1042 32.4583L21.4375 30.5833H24.5625ZM10.2917 16C10.8152 17.7174 11.4771 19.3895 12.2708 21C11.4765 22.646 10.8146 24.3528 10.2917 26.1041L9.66667 25.8958C7.84256 25.3201 6.1454 24.4008 4.66667 23.1875C4.28377 22.9455 3.95605 22.6257 3.7048 22.2488C3.45356 21.872 3.2844 21.4465 3.20833 21C3.20833 19.75 5.29167 17.7708 9.25 16.4166L10.2917 16ZM21.4375 11.4166L23 9.6458L24.5625 11.4166H21.4375ZM32.8958 3.81247C34.0417 4.43747 34.6667 7.56247 33.7292 12.1458C33.734 12.2022 33.7272 12.2591 33.7093 12.3128C33.6914 12.3665 33.6627 12.416 33.625 12.4583L28.4167 11.625C27.3891 10.1712 26.2761 8.77988 25.0833 7.4583L25.7083 6.93747C29.0417 4.0208 31.75 3.18747 32.8958 3.81247ZM15.5 14.8541L14.6667 16.2083L13.9375 17.5625C13.625 16.8333 13.4167 16.1041 13.1042 15.2708L15.5 14.8541ZM13.1042 26.7291C13.4167 26 13.625 25.2708 13.9375 24.4375L14.6667 25.7916L15.5 27.1458L13.1042 26.7291ZM30.5 21C29.9699 22.142 29.3788 23.2548 28.7292 24.3333C28.1042 25.4791 27.375 26.5208 26.75 27.5625H19.25C18.5208 26.4166 17.7917 25.375 17.2708 24.3333C16.6161 23.2577 16.0248 22.1447 15.5 21C16.0054 19.8458 16.5974 18.7315 17.2708 17.6666C17.8693 16.5874 18.5301 15.544 19.25 14.5416C21.7457 14.3334 24.2543 14.3334 26.75 14.5416C27.4792 15.5833 28.1042 16.625 28.7292 17.6666C29.4026 18.7315 29.9946 19.8458 30.5 21ZM31.3333 16.2083L30.5 14.8541L32.8958 15.375C32.6639 16.1208 32.3856 16.8514 32.0625 17.5625L31.3333 16.2083ZM30.5 27.1458L31.3333 25.7916L32.0625 24.3333L33 26.7291L30.5 27.1458ZM20.8125 7.35414H20.9167L17.5833 11.5208L12.375 12.3541C12.2708 12.0416 12.2708 11.8333 12.1667 11.5208C11.3333 7.24997 11.9583 4.3333 13 3.81247C13.2766 3.63082 13.61 3.55672 13.9375 3.60414C15.3958 3.60414 17.8958 4.6458 20.7083 7.1458L20.8125 7.35414ZM12.1667 30.5833C12.1857 30.2617 12.256 29.9452 12.375 29.6458L17.6875 30.375C18.689 31.8481 19.8034 33.2412 21.0208 34.5416L20.8125 34.75L20.6042 34.9583C19.184 36.2738 17.5211 37.2999 15.7083 37.9791C15.3107 38.1874 14.875 38.3133 14.4275 38.3491C13.98 38.3849 13.5299 38.3299 13.1042 38.1875C11.9583 37.5625 11.3333 34.75 12.1667 30.5833Z"
    fill="#7572D5" />
  <path
    d="M23 16.4166C22.0894 16.3959 21.1932 16.647 20.4259 17.1379C19.6586 17.6287 19.0549 18.3371 18.692 19.1726C18.3291 20.008 18.2233 20.9327 18.3882 21.8285C18.5532 22.7243 18.9812 23.5507 19.6179 24.2022C20.2545 24.8536 21.0709 25.3006 21.9627 25.4861C22.8545 25.6715 23.7813 25.587 24.6249 25.2434C25.4685 24.8998 26.1905 24.3126 26.6989 23.5568C27.2073 22.801 27.4789 21.9108 27.4792 20.9999C27.4795 19.8022 27.0109 18.6519 26.1738 17.7953C25.3366 16.9387 24.1974 16.4438 23 16.4166Z"
    fill="#7572D5" />
  </g>
  <g id="typescript">
      <path
    d="M5 25V45H45V5H5V25ZM37.235 23.4067C38.2517 23.66 39.025 24.1117 39.7367 24.8483C40.105 25.2417 40.6517 25.9583 40.695 26.1317C40.7083 26.1817 38.9683 27.3483 37.915 28.0033C37.8767 28.0283 37.7233 27.8633 37.5533 27.61C37.0367 26.86 36.4983 26.5367 35.6733 26.48C34.46 26.3967 33.68 27.0317 33.6867 28.0917C33.6756 28.3523 33.7343 28.6112 33.8567 28.8417C34.1233 29.3933 34.62 29.725 36.1733 30.3967C39.0383 31.63 40.2633 32.4417 41.025 33.5967C41.875 34.885 42.0667 36.9433 41.4883 38.4733C40.855 40.1367 39.28 41.2667 37.0633 41.64C36.3783 41.7617 34.7533 41.7433 34.0167 41.61C32.41 41.3233 30.8867 40.53 29.9467 39.4883C29.5783 39.0833 28.86 38.0217 28.905 37.9467C28.9233 37.92 29.0883 37.8183 29.2717 37.7117C29.4517 37.61 30.1233 37.2217 30.7583 36.8533L31.9083 36.1867L32.15 36.5433C32.4867 37.0567 33.2217 37.7617 33.6667 37.9967C34.9433 38.67 36.695 38.575 37.5583 37.8C37.7319 37.6538 37.8694 37.4693 37.9599 37.2612C38.0504 37.053 38.0915 36.8267 38.08 36.6C38.08 36.1367 38.0217 35.9333 37.78 35.5833C37.47 35.14 36.835 34.7667 35.0317 33.9833C32.9683 33.095 32.08 32.5433 31.2667 31.6667C30.759 31.0881 30.3841 30.4055 30.1683 29.6667C30.0167 29.1017 29.9783 27.685 30.0983 27.115C30.5233 25.12 32.0283 23.7317 34.2 23.3183C34.905 23.185 36.5433 23.235 37.235 23.4067ZM27.845 25.0767L27.8583 26.715H22.65V41.5083H18.9667V26.715H13.7633V25.1083C13.7633 24.2183 13.7817 23.475 13.8067 23.4583C13.8267 23.4317 16.995 23.4183 20.835 23.425L27.8267 23.445L27.845 25.0767Z"
    fill="#7572D5" />
  </g>

  <g id="styled">
    <path
    d="M37.2591 6.25L36.9888 7.64963C36.5708 10.3021 36.7221 11.061 37.8682 12.0454L38.9747 12.9546L37.8286 18.0305C37.1438 21.0588 36.3041 23.5968 35.7707 24.4308C35.313 25.1503 34.7796 26.2099 34.6642 26.7791C34.4732 27.4592 33.8245 28.1429 32.8334 28.7478C31.9576 29.2418 30.2385 30.5663 29.0203 31.6294C28.0472 32.4993 27.3769 33.0326 27.0129 33.2617L25.8235 34.196C25.4415 34.8046 25.2253 35.295 25.1424 35.6672C25.0595 36.0503 25.1063 36.3044 25.2289 36.4905C25.3478 36.6695 25.5532 36.7948 25.8343 36.8736C26.1671 36.951 26.5097 36.9788 26.8507 36.9559C27.6222 36.9035 28.3858 36.7691 29.1284 36.555C29.3807 36.487 29.5789 36.4225 29.7519 36.3653C30.0186 36.0395 30.6349 35.4238 31.7269 34.3535C34.6246 31.5149 35.731 29.9613 34.5885 30.3802C34.1669 30.5305 34.3579 30.1511 35.0823 29.3922C36.6104 27.9138 37.4862 25.6801 39.317 18.6748C40.7659 13.1443 40.7659 13.0656 41.8327 13.0656C42.3336 13.0656 43.75 13.1515 43.75 13.1515V6.25H40.4992H37.2591ZM24.4216 18.0806C23.3692 18.0735 21.1058 19.6664 14.3303 25.1611C14.0383 25.8519 14.0131 26.328 14.1464 26.6359C14.2329 26.8471 14.3915 26.9938 14.6114 27.1012C14.8276 27.2086 15.1087 27.2731 15.4187 27.2981C16.035 27.3518 16.763 27.2552 17.3504 27.1406L17.7469 27.0511C17.8826 26.8704 18.0608 26.7254 18.2659 26.6287C18.6839 26.3996 20.4391 24.8103 22.1943 23.1064C25.2829 19.9993 26.0073 18.5961 24.7495 18.1415C24.6463 18.1007 24.5326 18.08 24.4216 18.0806ZM32.336 20.2391C31.4098 20.2642 29.7411 21.3309 26.8831 23.5968C25.4487 24.753 24.5405 25.3759 24.0539 25.5047L22.1654 26.9867C21.4554 28.2753 21.3509 29.0736 21.5383 29.5139C21.5852 29.6225 21.6533 29.7208 21.7387 29.8031C21.8241 29.8855 21.925 29.9502 22.0357 29.9936C22.311 30.1015 22.6046 30.1562 22.9006 30.1546C23.608 30.1471 24.3112 30.0448 24.991 29.8504C25.3453 29.7559 25.6952 29.6461 26.0398 29.521L26.1443 29.4781L26.3353 29.3779C26.6957 28.9161 27.5246 28.0462 28.5626 27.044C31.8423 23.9011 33.5181 21.6674 33.1758 20.8333C33.0208 20.4288 32.7541 20.2248 32.336 20.2391ZM23.5998 24.1051C23.3331 24.1337 22.7349 24.5919 21.6573 25.5298C20.1003 26.8972 18.4028 27.6847 17.8154 27.3339C17.6788 27.3645 17.5419 27.3932 17.4045 27.4198C16.8062 27.5379 16.0602 27.6346 15.3934 27.5809C15.0793 27.562 14.7714 27.4855 14.4852 27.3554C14.2153 27.2328 13.9999 27.0164 13.8797 26.7468C13.7464 26.4247 13.7464 26.0238 13.8978 25.5119L11.5551 27.4234L6.2536 31.7798V38.8424L23.6251 25.2506C23.6217 25.1018 23.6411 24.9533 23.6827 24.8103C23.8161 24.3306 23.8089 24.0872 23.5998 24.1087V24.1051ZM31.0746 26.3925C30.8115 26.3925 30.3718 26.7612 29.669 27.5021C28.714 28.5152 27.2111 29.496 26.4146 29.6964L26.292 29.7609C26.1613 29.8145 26.0291 29.8646 25.8956 29.9112C25.6794 29.9828 25.3982 30.0687 25.0739 30.1546C24.4252 30.33 23.6179 30.4911 22.897 30.4732C22.5572 30.4728 22.2207 30.4072 21.9059 30.2799C21.6093 30.1585 21.3716 29.9275 21.2428 29.6356C21.0338 29.138 21.1167 28.44 21.5744 27.4485L6.25 39.4366V43.75H12.9823L27.2615 32.6103C27.6327 32.2022 28.1914 31.6438 28.9446 30.9457C30.9629 29.0879 31.4206 28.4472 31.4206 27.4986C31.4206 26.7612 31.3377 26.3889 31.0746 26.3889V26.3925ZM34.4732 33.3727L33.2514 34.5826C32.5667 35.2269 31.3449 36.0216 30.5088 36.3617L30.343 36.4333L30.3322 36.4512L30.2961 36.487C30.2637 36.512 30.2493 36.5156 30.2241 36.5263C29.8903 36.6518 29.5512 36.7629 29.2077 36.8592C28.4441 37.08 27.6586 37.218 26.8651 37.2709C26.4899 37.2948 26.1132 37.2622 25.7478 37.1743C25.4307 37.1049 25.1508 36.9213 24.9622 36.6588C24.7892 36.3939 24.7387 36.0395 24.836 35.6028C24.9134 35.2919 25.0284 34.9914 25.1784 34.7079L13.6563 43.75H28.9807L30.8115 41.6667C33.3271 38.7529 34.4732 36.6695 34.4732 34.8869V33.3727Z"
    fill="#7572D5" />
  </g>

  <g id="design">
    <path
    d="M17.7084 4.16666C14.2566 4.16666 11.4584 6.96489 11.4584 10.4167C11.4584 13.8684 14.2566 16.6667 17.7084 16.6667H32.2917C35.7436 16.6667 38.5417 13.8684 38.5417 10.4167C38.5417 6.96489 35.7436 4.16666 32.2917 4.16666H17.7084Z"
    fill="#7572D5" />
  <path
    d="M32.2916 18.75C28.8398 18.75 26.0416 21.5481 26.0416 25C26.0416 28.4519 28.8398 31.25 32.2916 31.25C35.7435 31.25 38.5416 28.4519 38.5416 25C38.5416 21.5481 35.7435 18.75 32.2916 18.75Z"
    fill="#7572D5" />
  <path
    d="M11.4584 25C11.4584 21.5481 14.2566 18.75 17.7084 18.75H23.9584V31.25H17.7084C14.2566 31.25 11.4584 28.4519 11.4584 25Z"
    fill="#7572D5" />
  <path
    d="M17.7084 33.3333C14.2566 33.3333 11.4584 36.1315 11.4584 39.5833C11.4584 43.0352 14.2566 45.8333 17.7084 45.8333C21.1602 45.8333 23.9584 43.0352 23.9584 39.5833V33.3333H17.7084Z"
    fill="#7572D5" />
  </g>

<!-- Skills end -->

<!-- Socials start -->

<g id="instagram">
  <path
    d="M16.4287 2.18774H5.69629C3.83008 2.18774 2.3125 3.70473 2.3125 5.57021V9.14401V16.3053C2.3125 18.1708 3.83008 19.6877 5.69629 19.6877H16.4287C18.2949 19.6877 19.8125 18.1708 19.8125 16.3053V9.13718V5.56338C19.8057 3.70473 18.2881 2.18774 16.4287 2.18774ZM17.3994 4.20356H17.7891V4.58622V7.1692L14.8291 7.17603L14.8223 4.21039L17.3994 4.20356ZM8.56055 9.13718C9.12109 8.36502 10.0303 7.85252 11.0557 7.85252C12.0811 7.85252 12.9902 8.35819 13.5508 9.13718C13.9199 9.64284 14.1318 10.2647 14.1318 10.9343C14.1318 12.629 12.751 14.0161 11.0488 14.0161C9.34668 14.0161 7.97949 12.629 7.97949 10.9343C7.97949 10.2647 8.19824 9.64284 8.56055 9.13718ZM18.1035 16.2984C18.1035 17.2209 17.3516 17.9726 16.4287 17.9726H5.69629C4.77344 17.9726 4.02148 17.2209 4.02148 16.2984V9.13718H6.63281C6.40723 9.69067 6.27734 10.2988 6.27734 10.9343C6.27734 13.572 8.42383 15.7176 11.0625 15.7176C13.7012 15.7176 15.8477 13.572 15.8477 10.9343C15.8477 10.2988 15.7178 9.69067 15.4922 9.13718H18.1035V16.2984Z"
     />
</g>

<g id="telegram">
  <path d="M18.9057 4.76449L16.3705 16.7208C16.1791 17.5644 15.6804 17.7745 14.9717 17.3772L11.1085 14.5305L9.24472 16.3235C9.0383 16.5299 8.86608 16.7022 8.46824 16.7022L8.74607 12.7681L15.9054 6.29885C16.2169 6.02162 15.8376 5.86741 15.4218 6.14524L6.57084 11.7186L2.76043 10.5257C1.93174 10.2671 1.91674 9.69701 2.93325 9.29917L17.837 3.55716C18.5271 3.29854 19.1308 3.71018 18.9057 4.76449Z"/>
</g>

<g id="vk">
  <path
    d="M18.1695 13.9941C17.8037 13.5391 17.388 13.1314 16.986 12.737C16.8431 12.5968 16.6953 12.4518 16.5528 12.3076C16.1438 11.8932 16.1289 11.7375 16.4527 11.2668C16.6768 10.9424 16.9143 10.6175 17.1441 10.3033C17.3524 10.0183 17.5679 9.72351 17.7745 9.42777L17.8169 9.36697C18.2116 8.80103 18.6198 8.21583 18.8371 7.50988C18.8935 7.32363 18.9527 7.04955 18.8173 6.82036C18.6819 6.59137 18.4194 6.52151 18.2336 6.48888C18.1417 6.47273 18.0505 6.47053 17.9658 6.47053L15.3808 6.46861L15.3594 6.46842C14.9686 6.46842 14.7052 6.65927 14.5543 7.05194C14.4102 7.42713 14.2519 7.82665 14.0713 8.20653C13.7118 8.96298 13.2553 9.83425 12.5947 10.5609L12.5668 10.5918C12.4888 10.6787 12.4004 10.777 12.3358 10.777C12.3259 10.777 12.3151 10.7751 12.3029 10.7711C12.1661 10.7159 12.0743 10.3726 12.0784 10.213C12.0785 10.2108 12.0785 10.2086 12.0785 10.2064L12.0767 7.1105C12.0767 7.09976 12.076 7.08913 12.0746 7.07849C12.0089 6.57522 11.8632 6.26195 11.3128 6.15026C11.2982 6.14724 11.2833 6.14575 11.2684 6.14575H8.58049C8.14257 6.14575 7.90128 6.33018 7.67446 6.60623C7.61323 6.68002 7.48579 6.83364 7.54895 7.01998C7.61305 7.20911 7.82109 7.24955 7.88884 7.26268C8.22511 7.32899 8.41466 7.54213 8.46835 7.91453C8.56208 8.56121 8.5736 9.25144 8.5046 10.0868C8.48537 10.3189 8.44731 10.4982 8.38461 10.6514C8.37004 10.6872 8.31839 10.8038 8.26572 10.8039C8.24898 10.8039 8.20056 10.7971 8.11237 10.7341C7.90387 10.5861 7.75131 10.3749 7.57346 10.114C6.96842 9.22796 6.46063 8.25191 6.02086 7.12938C5.85777 6.71615 5.55317 6.48481 5.16279 6.478C4.73384 6.47125 4.34494 6.46799 3.97402 6.46799C3.56875 6.46799 3.19303 6.47187 2.82614 6.47978C2.51206 6.48553 2.29481 6.58308 2.1805 6.76996C2.06601 6.95697 2.07345 7.20264 2.20265 7.50001C3.23692 9.88254 4.17467 11.6149 5.24334 13.1171C5.99215 14.1683 6.74322 14.8959 7.60676 15.4068C8.51654 15.9461 9.53609 16.2083 10.7236 16.2083C10.8582 16.2083 10.9974 16.2048 11.1378 16.198C11.8278 16.1632 12.0838 15.9044 12.1162 15.2082C12.1316 14.8525 12.1691 14.4793 12.3379 14.1611C12.4444 13.9606 12.5438 13.9606 12.5764 13.9606C12.6393 13.9606 12.7173 13.9906 12.801 14.0468C12.9512 14.1484 13.08 14.2845 13.1856 14.4034C13.2849 14.5163 13.3832 14.6304 13.4816 14.7446C13.6938 14.9909 13.9133 15.2456 14.1426 15.4871C14.6444 16.0162 15.1972 16.2488 15.8322 16.1983H18.2022C18.2072 16.1983 18.2123 16.1981 18.2174 16.1978C18.4535 16.1817 18.6581 16.0459 18.7785 15.8254C18.9277 15.5522 18.9247 15.2037 18.7705 14.893C18.5955 14.5415 18.3684 14.2413 18.1695 13.9941Z"
   />
</g>

<g id="linkedin">
  <path d="M5.80637 7.88647H2.53296V18.3627H5.80637V7.88647Z"  />
  <path
    d="M4.10076 2.94019C2.89373 2.94019 2.09998 3.72082 2.09998 4.75729C2.09998 5.77408 2.86749 6.57439 4.05484 6.57439H4.08108C5.31434 6.57439 6.08186 5.76752 6.0753 4.75729C6.04906 3.72082 5.30778 2.94019 4.10076 2.94019Z"
     />
  <path
    d="M14.7475 7.78809C12.8714 7.78809 11.6971 8.81144 11.4807 9.53303V7.88648H7.80054C7.84646 8.75896 7.80054 18.3627 7.80054 18.3627H11.4807V12.7015C11.4807 12.38 11.4675 12.0652 11.5594 11.8421C11.8087 11.2124 12.3531 10.5564 13.3306 10.5564C14.6098 10.5564 15.187 11.5273 15.187 12.9442V18.3627H18.9V12.5375C18.9 9.29687 17.0763 7.78809 14.7475 7.78809Z"
     />
</g>

<!-- Socials end -->

<g id="quote">
    <path
    d="M13.5417 20.8334C13.0771 20.8334 12.6313 20.9042 12.1876 20.9688C12.3313 20.4855 12.4792 19.9938 12.7167 19.5521C12.9542 18.9105 13.3251 18.3542 13.6938 17.7938C14.0021 17.1875 14.5459 16.7771 14.9459 16.2584C15.3646 15.7542 15.9355 15.4188 16.3876 15C16.8313 14.5625 17.4126 14.3438 17.8751 14.0355C18.3584 13.7584 18.7792 13.4521 19.2292 13.3063L20.3521 12.8438L21.3396 12.4334L20.3292 8.39587L19.0855 8.69587C18.6876 8.79587 18.2021 8.91254 17.6501 9.05212C17.0855 9.15629 16.4834 9.44171 15.8126 9.70212C15.1501 9.99796 14.3834 10.198 13.6709 10.673C12.9542 11.1271 12.1271 11.5063 11.398 12.1146C10.6917 12.7417 9.83964 13.2855 9.21047 14.0834C8.52297 14.8292 7.84381 15.6125 7.31673 16.5042C6.70631 17.3542 6.29172 18.2875 5.85422 19.2105C5.45839 20.1334 5.13964 21.0771 4.87923 21.9938C4.38548 23.8313 4.16464 25.5771 4.07923 27.0709C4.00839 28.5667 4.05006 29.8105 4.13756 30.7105C4.16881 31.1355 4.22714 31.548 4.26881 31.8334L4.32089 32.1834L4.37506 32.1709C4.7456 33.9018 5.59861 35.4924 6.8354 36.7587C8.07219 38.0251 9.64223 38.9154 11.3639 39.3268C13.0856 39.7381 14.8885 39.6536 16.5641 39.083C18.2398 38.5125 19.7197 37.4792 20.8326 36.1027C21.9455 34.7262 22.646 33.0628 22.853 31.3048C23.06 29.5469 22.7651 27.7662 22.0024 26.1688C21.2397 24.5715 20.0403 23.2227 18.5431 22.2785C17.0458 21.3343 15.3118 20.8333 13.5417 20.8334ZM36.4584 20.8334C35.9938 20.8334 35.548 20.9042 35.1042 20.9688C35.248 20.4855 35.3959 19.9938 35.6334 19.5521C35.8709 18.9105 36.2417 18.3542 36.6105 17.7938C36.9188 17.1875 37.4626 16.7771 37.8626 16.2584C38.2813 15.7542 38.8521 15.4188 39.3042 15C39.748 14.5625 40.3292 14.3438 40.7917 14.0355C41.2751 13.7584 41.6959 13.4521 42.1459 13.3063L43.2688 12.8438L44.2563 12.4334L43.2459 8.39587L42.0021 8.69587C41.6042 8.79587 41.1188 8.91254 40.5667 9.05212C40.0021 9.15629 39.4001 9.44171 38.7292 9.70212C38.0688 10 37.3001 10.198 36.5876 10.675C35.8709 11.1292 35.0438 11.5084 34.3146 12.1167C33.6084 12.7438 32.7563 13.2875 32.1271 14.0834C31.4396 14.8292 30.7605 15.6125 30.2334 16.5042C29.623 17.3542 29.2084 18.2875 28.7709 19.2105C28.3751 20.1334 28.0563 21.0771 27.7959 21.9938C27.3021 23.8313 27.0813 25.5771 26.9959 27.0709C26.9251 28.5667 26.9667 29.8105 27.0542 30.7105C27.0855 31.1355 27.1438 31.548 27.1855 31.8334L27.2376 32.1834L27.2917 32.1709C27.6623 33.9018 28.5153 35.4924 29.7521 36.7587C30.9889 38.0251 32.5589 38.9154 34.2806 39.3268C36.0022 39.7381 37.8052 39.6536 39.4808 39.083C41.1564 38.5125 42.6363 37.4792 43.7492 36.1027C44.8622 34.7262 45.5627 33.0628 45.7697 31.3048C45.9767 29.5469 45.6818 27.7662 44.9191 26.1688C44.1564 24.5715 42.957 23.2227 41.4597 22.2785C39.9625 21.3343 38.2285 20.8333 36.4584 20.8334Z"
    fill="#7572D5" />
</g>

<g id="btn-go-up">
  <g clip-path="url(#clip0_20_2202)">
    <rect width="30" height="30" fill="black" fill-opacity="0.3" />
    <path d="M13.8072 11.2806V22H16.1928V11.2806L21.3134 16.0812L23 14.5L15 7L7 14.5L8.6866 16.0812L13.8072 11.2806Z"
      fill="white" />
  </g>
  <defs>
    <clipPath id="clip0_20_2202">
      <rect width="30" height="30" fill="white" />
    </clipPath>
  </defs>
</g>
</svg>
